<svg xmlns="http://www.w3.org/2000/svg" width="209" height="38" fill="none" viewBox="0 0 209 38">
  <g filter="url(#a)">
    <path fill="#0063C9" d="M4 22h201v7H4z"/>
    <path fill="#FFCD00" d="M4 29h201v7H4z"/>
    <path fill="#000" d="m39.064 18-.016-8.16L35 16.64h-.736l-4.048-6.752V18H28.68V6.8h1.312l4.672 7.872L39.272 6.8h1.312L40.6 18h-1.536Zm12.033-2.8h-5.952L43.913 18h-1.648l5.072-11.2h1.584L54.01 18h-1.68l-1.232-2.8Zm-.56-1.28-2.416-5.488-2.416 5.488h4.832ZM55.68 6.8h4.72c1.184 0 2.235.235 3.152.704.917.47 1.627 1.13 2.128 1.984.512.843.768 1.813.768 2.912s-.256 2.075-.768 2.928c-.501.843-1.21 1.499-2.128 1.968-.917.47-1.968.704-3.152.704h-4.72V6.8Zm4.624 9.808c.907 0 1.701-.176 2.384-.528.693-.352 1.227-.843 1.6-1.472.373-.64.56-1.376.56-2.208 0-.832-.187-1.563-.56-2.192a3.79 3.79 0 0 0-1.6-1.488c-.683-.352-1.477-.528-2.384-.528H57.28v8.416h3.024Zm16.723 0V18h-8.128V6.8h7.904v1.392h-6.304v3.44h5.616v1.36h-5.616v3.616h6.528ZM83.914 6.8h1.6V18h-1.6V6.8Zm14.585 0V18h-1.311l-6.72-8.352V18h-1.6V6.8h1.312l6.72 8.352V6.8h1.6Zm12.29 11.328c-1.494 0-2.656-.427-3.488-1.28-.832-.853-1.248-2.08-1.248-3.68V6.8h1.6v6.304c0 2.4 1.05 3.6 3.152 3.6 1.024 0 1.808-.293 2.352-.88.544-.597.816-1.504.816-2.72V6.8h1.552v6.368c0 1.61-.416 2.843-1.248 3.696-.832.843-1.995 1.264-3.488 1.264Zm11.664-5.104-2.048 2.08V18h-1.6V6.8h1.6v6.256l6.08-6.256h1.824l-4.784 5.04 5.088 6.16h-1.872l-4.288-4.976ZM137.793 18l-2.416-3.44c-.299.021-.533.032-.704.032h-2.768V18h-1.6V6.8h4.368c1.451 0 2.592.347 3.424 1.04.832.693 1.248 1.648 1.248 2.864 0 .864-.213 1.6-.64 2.208-.427.608-1.035 1.05-1.824 1.328l2.656 3.76h-1.744Zm-3.168-4.768c1.013 0 1.787-.219 2.32-.656.533-.437.8-1.061.8-1.872 0-.81-.267-1.43-.8-1.856-.533-.437-1.307-.656-2.32-.656h-2.72v5.04h2.72Zm14.441 1.968h-5.952l-1.232 2.8h-1.648l5.072-11.2h1.584l5.088 11.2h-1.68l-1.232-2.8Zm-.56-1.28-2.416-5.488-2.416 5.488h4.832Zm5.143-7.12h1.6V18h-1.6V6.8Zm14.585 0V18h-1.312l-6.72-8.352V18h-1.6V6.8h1.312l6.72 8.352V6.8h1.6Zm11.48 9.808V18h-8.128V6.8h7.904v1.392h-6.304v3.44h5.616v1.36h-5.616v3.616h6.528Z"/>
  </g>
  <defs>
    <filter id="a" width="209" height="37.2" x="0" y=".8" color-interpolation-filters="sRGB" filterUnits="userSpaceOnUse">
      <feFlood flood-opacity="0" result="BackgroundImageFix"/>
      <feColorMatrix in="SourceAlpha" result="hardAlpha" values="0 0 0 0 0 0 0 0 0 0 0 0 0 0 0 0 0 0 127 0"/>
      <feOffset dy="-2"/>
      <feGaussianBlur stdDeviation="2"/>
      <feComposite in2="hardAlpha" operator="out"/>
      <feColorMatrix values="0 0 0 0 0 0 0 0 0 0 0 0 0 0 0 0 0 0 0.33 0"/>
      <feBlend in2="BackgroundImageFix" result="effect1_dropShadow_2_2"/>
      <feBlend in="SourceGraphic" in2="effect1_dropShadow_2_2" result="shape"/>
    </filter>
  </defs>
</svg>
